<?xml version="1.0" encoding="UTF-8" standalone="no"?>
<!DOCTYPE svg PUBLIC "-//W3C//DTD SVG 1.1//EN"
 "http://www.w3.org/Graphics/SVG/1.1/DTD/svg11.dtd">
<!-- Generated by graphviz version 2.40.1 (20161225.0304)
 -->
<!-- Title: dependencies Pages: 1 -->
<svg width="1136pt" height="211pt"
 viewBox="0.00 0.00 1136.00 211.00" xmlns="http://www.w3.org/2000/svg" xmlns:xlink="http://www.w3.org/1999/xlink">
<g id="graph0" class="graph" transform="scale(1 1) rotate(0) translate(4 207)">
<title>dependencies</title>
<polygon fill="#ffffff" stroke="transparent" points="-4,4 -4,-207 1132,-207 1132,4 -4,4"/>
<text text-anchor="start" x="543.0091" y="-42.4" font-family="sans-serif" font-weight="bold" font-size="14.00" fill="#000000">Legend</text>
<polygon fill="#ffffb3" stroke="transparent" points="330,-10 330,-30 350,-30 350,-10 330,-10"/>
<text text-anchor="start" x="353.629" y="-15.4" font-family="sans-serif" font-size="14.00" fill="#000000"> &#160;Declarations</text>
<polygon fill="#8dd3c7" stroke="transparent" points="443,-10 443,-30 463,-30 463,-10 443,-10"/>
<text text-anchor="start" x="466.7251" y="-15.4" font-family="sans-serif" font-size="14.00" fill="#000000"> &#160;Module</text>
<polygon fill="#80b1d3" stroke="transparent" points="529,-10 529,-30 549,-30 549,-10 529,-10"/>
<text text-anchor="start" x="552.7812" y="-15.4" font-family="sans-serif" font-size="14.00" fill="#000000"> &#160;Bootstrap</text>
<polygon fill="#fdb462" stroke="transparent" points="626,-10 626,-30 646,-30 646,-10 626,-10"/>
<text text-anchor="start" x="649.6732" y="-15.4" font-family="sans-serif" font-size="14.00" fill="#000000"> &#160;Providers</text>
<polygon fill="#fb8072" stroke="transparent" points="722,-10 722,-30 742,-30 742,-10 722,-10"/>
<text text-anchor="start" x="745.7258" y="-15.4" font-family="sans-serif" font-size="14.00" fill="#000000"> &#160;Exports</text>
<g id="clust1" class="cluster">
<title>cluster_UserModule</title>
<polygon fill="none" stroke="#000000" stroke-dasharray="1,5" points="8,-70 8,-195 1120,-195 1120,-70 8,-70"/>
</g>
<g id="clust2" class="cluster">
<title>cluster_UserModule_declarations</title>
<polygon fill="none" stroke="#000000" points="172,-78 172,-130 1112,-130 1112,-78 172,-78"/>
</g>
<g id="clust10" class="cluster">
<title>cluster_UserModule_imports</title>
<polygon fill="none" stroke="#000000" points="16,-78 16,-130 164,-130 164,-78 16,-78"/>
</g>
<!-- BoardComponent -->
<g id="node1" class="node">
<title>BoardComponent</title>
<polygon fill="#ffffb3" stroke="#000000" points="1103.5451,-122 988.4549,-122 988.4549,-86 1103.5451,-86 1103.5451,-122"/>
<text text-anchor="middle" x="1046" y="-99.8" font-family="Times,serif" font-size="14.00" fill="#000000">BoardComponent</text>
</g>
<!-- UserModule -->
<g id="node8" class="node">
<title>UserModule</title>
<polygon fill="#8dd3c7" stroke="#000000" points="614.9762,-187 611.9762,-191 590.9762,-191 587.9762,-187 529.0238,-187 529.0238,-151 614.9762,-151 614.9762,-187"/>
<text text-anchor="middle" x="572" y="-164.8" font-family="Times,serif" font-size="14.00" fill="#000000">UserModule</text>
</g>
<!-- BoardComponent&#45;&gt;UserModule -->
<g id="edge1" class="edge">
<title>BoardComponent&#45;&gt;UserModule</title>
<path fill="none" stroke="#000000" d="M1046,-122.2921C1046,-144.2057 1046,-178 1046,-178 1046,-178 625.3209,-178 625.3209,-178"/>
<polygon fill="#000000" stroke="#000000" points="625.3209,-174.5001 615.3209,-178 625.3209,-181.5001 625.3209,-174.5001"/>
</g>
<!-- HomeComponent -->
<g id="node2" class="node">
<title>HomeComponent</title>
<polygon fill="#ffffb3" stroke="#000000" points="969.5451,-122 854.4549,-122 854.4549,-86 969.5451,-86 969.5451,-122"/>
<text text-anchor="middle" x="912" y="-99.8" font-family="Times,serif" font-size="14.00" fill="#000000">HomeComponent</text>
</g>
<!-- HomeComponent&#45;&gt;UserModule -->
<g id="edge2" class="edge">
<title>HomeComponent&#45;&gt;UserModule</title>
<path fill="none" stroke="#000000" d="M912,-122.1061C912,-141.3391 912,-169 912,-169 912,-169 625.0612,-169 625.0612,-169"/>
<polygon fill="#000000" stroke="#000000" points="625.0613,-165.5001 615.0612,-169 625.0612,-172.5001 625.0613,-165.5001"/>
</g>
<!-- PopupComponent -->
<g id="node3" class="node">
<title>PopupComponent</title>
<polygon fill="#ffffb3" stroke="#000000" points="836.6151,-122 719.3849,-122 719.3849,-86 836.6151,-86 836.6151,-122"/>
<text text-anchor="middle" x="778" y="-99.8" font-family="Times,serif" font-size="14.00" fill="#000000">PopupComponent</text>
</g>
<!-- PopupComponent&#45;&gt;UserModule -->
<g id="edge3" class="edge">
<title>PopupComponent&#45;&gt;UserModule</title>
<path fill="none" stroke="#000000" d="M778,-122.027C778,-138.3976 778,-160 778,-160 778,-160 625.1844,-160 625.1844,-160"/>
<polygon fill="#000000" stroke="#000000" points="625.1844,-156.5001 615.1844,-160 625.1843,-163.5001 625.1844,-156.5001"/>
</g>
<!-- ProfileComponent -->
<g id="node4" class="node">
<title>ProfileComponent</title>
<polygon fill="#ffffb3" stroke="#000000" points="701.9328,-122 582.0672,-122 582.0672,-86 701.9328,-86 701.9328,-122"/>
<text text-anchor="middle" x="642" y="-99.8" font-family="Times,serif" font-size="14.00" fill="#000000">ProfileComponent</text>
</g>
<!-- ProfileComponent&#45;&gt;UserModule -->
<g id="edge4" class="edge">
<title>ProfileComponent&#45;&gt;UserModule</title>
<path fill="none" stroke="#000000" d="M598.6361,-122.1061C598.6361,-122.1061 598.6361,-140.991 598.6361,-140.991"/>
<polygon fill="#000000" stroke="#000000" points="595.1361,-140.9909 598.6361,-150.991 602.1361,-140.991 595.1361,-140.9909"/>
</g>
<!-- SidebarComponent -->
<g id="node5" class="node">
<title>SidebarComponent</title>
<polygon fill="#ffffb3" stroke="#000000" points="564.0954,-122 439.9046,-122 439.9046,-86 564.0954,-86 564.0954,-122"/>
<text text-anchor="middle" x="502" y="-99.8" font-family="Times,serif" font-size="14.00" fill="#000000">SidebarComponent</text>
</g>
<!-- SidebarComponent&#45;&gt;UserModule -->
<g id="edge5" class="edge">
<title>SidebarComponent&#45;&gt;UserModule</title>
<path fill="none" stroke="#000000" d="M546.5298,-122.1061C546.5298,-122.1061 546.5298,-140.991 546.5298,-140.991"/>
<polygon fill="#000000" stroke="#000000" points="543.0299,-140.9909 546.5298,-150.991 550.0299,-140.991 543.0299,-140.9909"/>
</g>
<!-- TimerComponent -->
<g id="node6" class="node">
<title>TimerComponent</title>
<polygon fill="#ffffb3" stroke="#000000" points="421.5423,-122 306.4577,-122 306.4577,-86 421.5423,-86 421.5423,-122"/>
<text text-anchor="middle" x="364" y="-99.8" font-family="Times,serif" font-size="14.00" fill="#000000">TimerComponent</text>
</g>
<!-- TimerComponent&#45;&gt;UserModule -->
<g id="edge6" class="edge">
<title>TimerComponent&#45;&gt;UserModule</title>
<path fill="none" stroke="#000000" d="M364,-122.027C364,-138.3976 364,-160 364,-160 364,-160 518.9023,-160 518.9023,-160"/>
<polygon fill="#000000" stroke="#000000" points="518.9023,-163.5001 528.9023,-160 518.9022,-156.5001 518.9023,-163.5001"/>
</g>
<!-- UserComponent -->
<g id="node7" class="node">
<title>UserComponent</title>
<polygon fill="#ffffb3" stroke="#000000" points="287.7591,-122 180.2409,-122 180.2409,-86 287.7591,-86 287.7591,-122"/>
<text text-anchor="middle" x="234" y="-99.8" font-family="Times,serif" font-size="14.00" fill="#000000">UserComponent</text>
</g>
<!-- UserComponent&#45;&gt;UserModule -->
<g id="edge7" class="edge">
<title>UserComponent&#45;&gt;UserModule</title>
<path fill="none" stroke="#000000" d="M234,-122.1061C234,-141.3391 234,-169 234,-169 234,-169 518.8488,-169 518.8488,-169"/>
<polygon fill="#000000" stroke="#000000" points="518.8488,-172.5001 528.8488,-169 518.8487,-165.5001 518.8488,-172.5001"/>
</g>
<!-- UserRoutingModule -->
<g id="node9" class="node">
<title>UserRoutingModule</title>
<polygon fill="#8dd3c7" stroke="#000000" points="155.594,-122 152.594,-126 131.594,-126 128.594,-122 24.406,-122 24.406,-86 155.594,-86 155.594,-122"/>
<text text-anchor="middle" x="90" y="-99.8" font-family="Times,serif" font-size="14.00" fill="#000000">UserRoutingModule</text>
</g>
<!-- UserRoutingModule&#45;&gt;UserModule -->
<g id="edge8" class="edge">
<title>UserRoutingModule&#45;&gt;UserModule</title>
<path fill="none" stroke="#000000" d="M90,-122.2921C90,-144.2057 90,-178 90,-178 90,-178 518.8015,-178 518.8015,-178"/>
<polygon fill="#000000" stroke="#000000" points="518.8016,-181.5001 528.8015,-178 518.8015,-174.5001 518.8016,-181.5001"/>
</g>
</g>
</svg>
