<?xml version="1.0" encoding="UTF-8" standalone="no"?>
<!DOCTYPE svg PUBLIC "-//W3C//DTD SVG 1.1//EN"
 "http://www.w3.org/Graphics/SVG/1.1/DTD/svg11.dtd">
<!-- Generated by graphviz version 2.40.1 (20161225.0304)
 -->
<!-- Title: dependencies Pages: 1 -->
<svg width="1350pt" height="211pt"
 viewBox="0.00 0.00 1350.00 211.00" xmlns="http://www.w3.org/2000/svg" xmlns:xlink="http://www.w3.org/1999/xlink">
<g id="graph0" class="graph" transform="scale(1 1) rotate(0) translate(4 207)">
<title>dependencies</title>
<polygon fill="#ffffff" stroke="transparent" points="-4,4 -4,-207 1346,-207 1346,4 -4,4"/>
<text text-anchor="start" x="650.0091" y="-42.4" font-family="sans-serif" font-weight="bold" font-size="14.00" fill="#000000">Legend</text>
<polygon fill="#ffffb3" stroke="transparent" points="437,-10 437,-30 457,-30 457,-10 437,-10"/>
<text text-anchor="start" x="460.629" y="-15.4" font-family="sans-serif" font-size="14.00" fill="#000000"> &#160;Declarations</text>
<polygon fill="#8dd3c7" stroke="transparent" points="550,-10 550,-30 570,-30 570,-10 550,-10"/>
<text text-anchor="start" x="573.7251" y="-15.4" font-family="sans-serif" font-size="14.00" fill="#000000"> &#160;Module</text>
<polygon fill="#80b1d3" stroke="transparent" points="636,-10 636,-30 656,-30 656,-10 636,-10"/>
<text text-anchor="start" x="659.7812" y="-15.4" font-family="sans-serif" font-size="14.00" fill="#000000"> &#160;Bootstrap</text>
<polygon fill="#fdb462" stroke="transparent" points="733,-10 733,-30 753,-30 753,-10 733,-10"/>
<text text-anchor="start" x="756.6732" y="-15.4" font-family="sans-serif" font-size="14.00" fill="#000000"> &#160;Providers</text>
<polygon fill="#fb8072" stroke="transparent" points="829,-10 829,-30 849,-30 849,-10 829,-10"/>
<text text-anchor="start" x="852.7258" y="-15.4" font-family="sans-serif" font-size="14.00" fill="#000000"> &#160;Exports</text>
<g id="clust1" class="cluster">
<title>cluster_AuthModule</title>
<polygon fill="none" stroke="#000000" stroke-dasharray="1,5" points="8,-70 8,-195 1334,-195 1334,-70 8,-70"/>
</g>
<g id="clust2" class="cluster">
<title>cluster_AuthModule_declarations</title>
<polygon fill="none" stroke="#000000" points="336,-78 336,-130 1326,-130 1326,-78 336,-78"/>
</g>
<g id="clust9" class="cluster">
<title>cluster_AuthModule_imports</title>
<polygon fill="none" stroke="#000000" points="180,-78 180,-130 328,-130 328,-78 180,-78"/>
</g>
<g id="clust12" class="cluster">
<title>cluster_AuthModule_providers</title>
<polygon fill="none" stroke="#000000" points="16,-78 16,-130 172,-130 172,-78 16,-78"/>
</g>
<!-- AuthComponent -->
<g id="node1" class="node">
<title>AuthComponent</title>
<polygon fill="#ffffb3" stroke="#000000" points="1317.8301,-122 1208.1699,-122 1208.1699,-86 1317.8301,-86 1317.8301,-122"/>
<text text-anchor="middle" x="1263" y="-99.8" font-family="Times,serif" font-size="14.00" fill="#000000">AuthComponent</text>
</g>
<!-- AuthModule -->
<g id="node7" class="node">
<title>AuthModule</title>
<polygon fill="#8dd3c7" stroke="#000000" points="773.5482,-187 770.5482,-191 749.5482,-191 746.5482,-187 686.4518,-187 686.4518,-151 773.5482,-151 773.5482,-187"/>
<text text-anchor="middle" x="730" y="-164.8" font-family="Times,serif" font-size="14.00" fill="#000000">AuthModule</text>
</g>
<!-- AuthComponent&#45;&gt;AuthModule -->
<g id="edge1" class="edge">
<title>AuthComponent&#45;&gt;AuthModule</title>
<path fill="none" stroke="#000000" d="M1263,-122.2921C1263,-144.2057 1263,-178 1263,-178 1263,-178 783.6176,-178 783.6176,-178"/>
<polygon fill="#000000" stroke="#000000" points="783.6177,-174.5001 773.6176,-178 783.6176,-181.5001 783.6177,-174.5001"/>
</g>
<!-- LoginComponent -->
<g id="node2" class="node">
<title>LoginComponent</title>
<polygon fill="#ffffb3" stroke="#000000" points="1190.2758,-122 1075.7242,-122 1075.7242,-86 1190.2758,-86 1190.2758,-122"/>
<text text-anchor="middle" x="1133" y="-99.8" font-family="Times,serif" font-size="14.00" fill="#000000">LoginComponent</text>
</g>
<!-- LoginComponent&#45;&gt;AuthModule -->
<g id="edge2" class="edge">
<title>LoginComponent&#45;&gt;AuthModule</title>
<path fill="none" stroke="#000000" d="M1133,-122.1061C1133,-141.3391 1133,-169 1133,-169 1133,-169 783.8952,-169 783.8952,-169"/>
<polygon fill="#000000" stroke="#000000" points="783.8953,-165.5001 773.8952,-169 783.8952,-172.5001 783.8953,-165.5001"/>
</g>
<!-- RegistComponent -->
<g id="node3" class="node">
<title>RegistComponent</title>
<polygon fill="#ffffb3" stroke="#000000" points="1057.6095,-122 940.3905,-122 940.3905,-86 1057.6095,-86 1057.6095,-122"/>
<text text-anchor="middle" x="999" y="-99.8" font-family="Times,serif" font-size="14.00" fill="#000000">RegistComponent</text>
</g>
<!-- RegistComponent&#45;&gt;AuthModule -->
<g id="edge3" class="edge">
<title>RegistComponent&#45;&gt;AuthModule</title>
<path fill="none" stroke="#000000" d="M999,-122.027C999,-138.3976 999,-160 999,-160 999,-160 783.8182,-160 783.8182,-160"/>
<polygon fill="#000000" stroke="#000000" points="783.8182,-156.5001 773.8182,-160 783.8182,-163.5001 783.8182,-156.5001"/>
</g>
<!-- ResetPasswordComponent -->
<g id="node4" class="node">
<title>ResetPasswordComponent</title>
<polygon fill="#ffffb3" stroke="#000000" points="922.087,-122 755.913,-122 755.913,-86 922.087,-86 922.087,-122"/>
<text text-anchor="middle" x="839" y="-99.8" font-family="Times,serif" font-size="14.00" fill="#000000">ResetPasswordComponent</text>
</g>
<!-- ResetPasswordComponent&#45;&gt;AuthModule -->
<g id="edge4" class="edge">
<title>ResetPasswordComponent&#45;&gt;AuthModule</title>
<path fill="none" stroke="#000000" d="M764.865,-122.1061C764.865,-122.1061 764.865,-140.991 764.865,-140.991"/>
<polygon fill="#000000" stroke="#000000" points="761.3651,-140.9909 764.865,-150.991 768.3651,-140.991 761.3651,-140.9909"/>
</g>
<!-- ResetPasswordMailSenderComponent -->
<g id="node5" class="node">
<title>ResetPasswordMailSenderComponent</title>
<polygon fill="#ffffb3" stroke="#000000" points="737.9001,-122 506.0999,-122 506.0999,-86 737.9001,-86 737.9001,-122"/>
<text text-anchor="middle" x="622" y="-99.8" font-family="Times,serif" font-size="14.00" fill="#000000">ResetPasswordMailSenderComponent</text>
</g>
<!-- ResetPasswordMailSenderComponent&#45;&gt;AuthModule -->
<g id="edge5" class="edge">
<title>ResetPasswordMailSenderComponent&#45;&gt;AuthModule</title>
<path fill="none" stroke="#000000" d="M711.9632,-122.1061C711.9632,-122.1061 711.9632,-140.991 711.9632,-140.991"/>
<polygon fill="#000000" stroke="#000000" points="708.4633,-140.9909 711.9632,-150.991 715.4633,-140.991 708.4633,-140.9909"/>
</g>
<!-- VerifyMailComponent -->
<g id="node6" class="node">
<title>VerifyMailComponent</title>
<polygon fill="#ffffb3" stroke="#000000" points="488.3061,-122 343.6939,-122 343.6939,-86 488.3061,-86 488.3061,-122"/>
<text text-anchor="middle" x="416" y="-99.8" font-family="Times,serif" font-size="14.00" fill="#000000">VerifyMailComponent</text>
</g>
<!-- VerifyMailComponent&#45;&gt;AuthModule -->
<g id="edge6" class="edge">
<title>VerifyMailComponent&#45;&gt;AuthModule</title>
<path fill="none" stroke="#000000" d="M416,-122.027C416,-138.3976 416,-160 416,-160 416,-160 676.3396,-160 676.3396,-160"/>
<polygon fill="#000000" stroke="#000000" points="676.3397,-163.5001 686.3396,-160 676.3396,-156.5001 676.3397,-163.5001"/>
</g>
<!-- AuthRoutingModule -->
<g id="node8" class="node">
<title>AuthRoutingModule</title>
<polygon fill="#8dd3c7" stroke="#000000" points="320.1652,-122 317.1652,-126 296.1652,-126 293.1652,-122 187.8348,-122 187.8348,-86 320.1652,-86 320.1652,-122"/>
<text text-anchor="middle" x="254" y="-99.8" font-family="Times,serif" font-size="14.00" fill="#000000">AuthRoutingModule</text>
</g>
<!-- AuthRoutingModule&#45;&gt;AuthModule -->
<g id="edge7" class="edge">
<title>AuthRoutingModule&#45;&gt;AuthModule</title>
<path fill="none" stroke="#000000" d="M254,-122.1061C254,-141.3391 254,-169 254,-169 254,-169 676.0723,-169 676.0723,-169"/>
<polygon fill="#000000" stroke="#000000" points="676.0723,-172.5001 686.0723,-169 676.0722,-165.5001 676.0723,-172.5001"/>
</g>
<!-- AuthServicePS -->
<g id="node9" class="node">
<title>AuthServicePS</title>
<ellipse fill="#fdb462" stroke="#000000" cx="94" cy="-104" rx="70.0809" ry="18"/>
<text text-anchor="middle" x="94" y="-99.8" font-family="Times,serif" font-size="14.00" fill="#000000">AuthServicePS</text>
</g>
<!-- AuthServicePS&#45;&gt;AuthModule -->
<g id="edge8" class="edge">
<title>AuthServicePS&#45;&gt;AuthModule</title>
<path fill="none" stroke="#000000" d="M94,-122.2921C94,-144.2057 94,-178 94,-178 94,-178 676.2851,-178 676.2851,-178"/>
<polygon fill="#000000" stroke="#000000" points="676.2852,-181.5001 686.2851,-178 676.2851,-174.5001 676.2852,-181.5001"/>
</g>
</g>
</svg>
