<?xml version="1.0" encoding="UTF-8" standalone="no"?>
<!DOCTYPE svg PUBLIC "-//W3C//DTD SVG 1.1//EN"
 "http://www.w3.org/Graphics/SVG/1.1/DTD/svg11.dtd">
<!-- Generated by graphviz version 2.40.1 (20161225.0304)
 -->
<!-- Title: dependencies Pages: 1 -->
<svg width="1100pt" height="211pt"
 viewBox="0.00 0.00 1100.00 211.00" xmlns="http://www.w3.org/2000/svg" xmlns:xlink="http://www.w3.org/1999/xlink">
<g id="graph0" class="graph" transform="scale(1 1) rotate(0) translate(4 207)">
<title>dependencies</title>
<polygon fill="#ffffff" stroke="transparent" points="-4,4 -4,-207 1096,-207 1096,4 -4,4"/>
<text text-anchor="start" x="525.0091" y="-42.4" font-family="sans-serif" font-weight="bold" font-size="14.00" fill="#000000">Legend</text>
<polygon fill="#ffffb3" stroke="transparent" points="312,-10 312,-30 332,-30 332,-10 312,-10"/>
<text text-anchor="start" x="335.629" y="-15.4" font-family="sans-serif" font-size="14.00" fill="#000000"> &#160;Declarations</text>
<polygon fill="#8dd3c7" stroke="transparent" points="425,-10 425,-30 445,-30 445,-10 425,-10"/>
<text text-anchor="start" x="448.7251" y="-15.4" font-family="sans-serif" font-size="14.00" fill="#000000"> &#160;Module</text>
<polygon fill="#80b1d3" stroke="transparent" points="511,-10 511,-30 531,-30 531,-10 511,-10"/>
<text text-anchor="start" x="534.7812" y="-15.4" font-family="sans-serif" font-size="14.00" fill="#000000"> &#160;Bootstrap</text>
<polygon fill="#fdb462" stroke="transparent" points="608,-10 608,-30 628,-30 628,-10 608,-10"/>
<text text-anchor="start" x="631.6732" y="-15.4" font-family="sans-serif" font-size="14.00" fill="#000000"> &#160;Providers</text>
<polygon fill="#fb8072" stroke="transparent" points="704,-10 704,-30 724,-30 724,-10 704,-10"/>
<text text-anchor="start" x="727.7258" y="-15.4" font-family="sans-serif" font-size="14.00" fill="#000000"> &#160;Exports</text>
<g id="clust1" class="cluster">
<title>cluster_AuthModule</title>
<polygon fill="none" stroke="#000000" stroke-dasharray="1,5" points="8,-70 8,-195 1084,-195 1084,-70 8,-70"/>
</g>
<g id="clust2" class="cluster">
<title>cluster_AuthModule_declarations</title>
<polygon fill="none" stroke="#000000" points="336,-78 336,-130 1076,-130 1076,-78 336,-78"/>
</g>
<g id="clust8" class="cluster">
<title>cluster_AuthModule_imports</title>
<polygon fill="none" stroke="#000000" points="180,-78 180,-130 328,-130 328,-78 180,-78"/>
</g>
<g id="clust11" class="cluster">
<title>cluster_AuthModule_providers</title>
<polygon fill="none" stroke="#000000" points="16,-78 16,-130 172,-130 172,-78 16,-78"/>
</g>
<!-- AuthComponent -->
<g id="node1" class="node">
<title>AuthComponent</title>
<polygon fill="#ffffb3" stroke="#000000" points="1067.8301,-122 958.1699,-122 958.1699,-86 1067.8301,-86 1067.8301,-122"/>
<text text-anchor="middle" x="1013" y="-99.8" font-family="Times,serif" font-size="14.00" fill="#000000">AuthComponent</text>
</g>
<!-- AuthModule -->
<g id="node6" class="node">
<title>AuthModule</title>
<polygon fill="#8dd3c7" stroke="#000000" points="632.5482,-187 629.5482,-191 608.5482,-191 605.5482,-187 545.4518,-187 545.4518,-151 632.5482,-151 632.5482,-187"/>
<text text-anchor="middle" x="589" y="-164.8" font-family="Times,serif" font-size="14.00" fill="#000000">AuthModule</text>
</g>
<!-- AuthComponent&#45;&gt;AuthModule -->
<g id="edge1" class="edge">
<title>AuthComponent&#45;&gt;AuthModule</title>
<path fill="none" stroke="#000000" d="M1013,-122.2921C1013,-144.2057 1013,-178 1013,-178 1013,-178 642.7785,-178 642.7785,-178"/>
<polygon fill="#000000" stroke="#000000" points="642.7785,-174.5001 632.7785,-178 642.7784,-181.5001 642.7785,-174.5001"/>
</g>
<!-- LoginComponent -->
<g id="node2" class="node">
<title>LoginComponent</title>
<polygon fill="#ffffb3" stroke="#000000" points="940.2758,-122 825.7242,-122 825.7242,-86 940.2758,-86 940.2758,-122"/>
<text text-anchor="middle" x="883" y="-99.8" font-family="Times,serif" font-size="14.00" fill="#000000">LoginComponent</text>
</g>
<!-- LoginComponent&#45;&gt;AuthModule -->
<g id="edge2" class="edge">
<title>LoginComponent&#45;&gt;AuthModule</title>
<path fill="none" stroke="#000000" d="M883,-122.1061C883,-141.3391 883,-169 883,-169 883,-169 642.6973,-169 642.6973,-169"/>
<polygon fill="#000000" stroke="#000000" points="642.6973,-165.5001 632.6973,-169 642.6973,-172.5001 642.6973,-165.5001"/>
</g>
<!-- RegistComponent -->
<g id="node3" class="node">
<title>RegistComponent</title>
<polygon fill="#ffffb3" stroke="#000000" points="807.6095,-122 690.3905,-122 690.3905,-86 807.6095,-86 807.6095,-122"/>
<text text-anchor="middle" x="749" y="-99.8" font-family="Times,serif" font-size="14.00" fill="#000000">RegistComponent</text>
</g>
<!-- RegistComponent&#45;&gt;AuthModule -->
<g id="edge3" class="edge">
<title>RegistComponent&#45;&gt;AuthModule</title>
<path fill="none" stroke="#000000" d="M749,-122.027C749,-138.3976 749,-160 749,-160 749,-160 642.7207,-160 642.7207,-160"/>
<polygon fill="#000000" stroke="#000000" points="642.7207,-156.5001 632.7207,-160 642.7207,-163.5001 642.7207,-156.5001"/>
</g>
<!-- ResetPasswordComponent -->
<g id="node4" class="node">
<title>ResetPasswordComponent</title>
<polygon fill="#ffffb3" stroke="#000000" points="672.087,-122 505.913,-122 505.913,-86 672.087,-86 672.087,-122"/>
<text text-anchor="middle" x="589" y="-99.8" font-family="Times,serif" font-size="14.00" fill="#000000">ResetPasswordComponent</text>
</g>
<!-- ResetPasswordComponent&#45;&gt;AuthModule -->
<g id="edge4" class="edge">
<title>ResetPasswordComponent&#45;&gt;AuthModule</title>
<path fill="none" stroke="#000000" d="M589,-122.1061C589,-122.1061 589,-140.991 589,-140.991"/>
<polygon fill="#000000" stroke="#000000" points="585.5001,-140.9909 589,-150.991 592.5001,-140.991 585.5001,-140.9909"/>
</g>
<!-- VerifyMailComponent -->
<g id="node5" class="node">
<title>VerifyMailComponent</title>
<polygon fill="#ffffb3" stroke="#000000" points="488.3061,-122 343.6939,-122 343.6939,-86 488.3061,-86 488.3061,-122"/>
<text text-anchor="middle" x="416" y="-99.8" font-family="Times,serif" font-size="14.00" fill="#000000">VerifyMailComponent</text>
</g>
<!-- VerifyMailComponent&#45;&gt;AuthModule -->
<g id="edge5" class="edge">
<title>VerifyMailComponent&#45;&gt;AuthModule</title>
<path fill="none" stroke="#000000" d="M416,-122.027C416,-138.3976 416,-160 416,-160 416,-160 535.3448,-160 535.3448,-160"/>
<polygon fill="#000000" stroke="#000000" points="535.3448,-163.5001 545.3448,-160 535.3448,-156.5001 535.3448,-163.5001"/>
</g>
<!-- AuthRoutingModule -->
<g id="node7" class="node">
<title>AuthRoutingModule</title>
<polygon fill="#8dd3c7" stroke="#000000" points="320.1652,-122 317.1652,-126 296.1652,-126 293.1652,-122 187.8348,-122 187.8348,-86 320.1652,-86 320.1652,-122"/>
<text text-anchor="middle" x="254" y="-99.8" font-family="Times,serif" font-size="14.00" fill="#000000">AuthRoutingModule</text>
</g>
<!-- AuthRoutingModule&#45;&gt;AuthModule -->
<g id="edge6" class="edge">
<title>AuthRoutingModule&#45;&gt;AuthModule</title>
<path fill="none" stroke="#000000" d="M254,-122.1061C254,-141.3391 254,-169 254,-169 254,-169 535.2046,-169 535.2046,-169"/>
<polygon fill="#000000" stroke="#000000" points="535.2046,-172.5001 545.2046,-169 535.2046,-165.5001 535.2046,-172.5001"/>
</g>
<!-- AuthServicePS -->
<g id="node8" class="node">
<title>AuthServicePS</title>
<ellipse fill="#fdb462" stroke="#000000" cx="94" cy="-104" rx="70.0809" ry="18"/>
<text text-anchor="middle" x="94" y="-99.8" font-family="Times,serif" font-size="14.00" fill="#000000">AuthServicePS</text>
</g>
<!-- AuthServicePS&#45;&gt;AuthModule -->
<g id="edge7" class="edge">
<title>AuthServicePS&#45;&gt;AuthModule</title>
<path fill="none" stroke="#000000" d="M94,-122.2921C94,-144.2057 94,-178 94,-178 94,-178 535.0721,-178 535.0721,-178"/>
<polygon fill="#000000" stroke="#000000" points="535.0721,-181.5001 545.0721,-178 535.072,-174.5001 535.0721,-181.5001"/>
</g>
</g>
</svg>
